<mxfile host="app.diagrams.net" agent="Mozilla/5.0 (Windows NT 10.0; Win64; x64) AppleWebKit/537.36 (KHTML, like Gecko) Chrome/127.0.0.0 Safari/537.36" version="24.7.7">
  <diagram name="Page-1" id="GI_kLPGtd_reMEt7rxU2">
    <mxGraphModel dx="1050" dy="557" grid="1" gridSize="10" guides="1" tooltips="1" connect="1" arrows="1" fold="1" page="1" pageScale="1" pageWidth="850" pageHeight="1100" math="0" shadow="0">
      <root>
        <mxCell id="0" />
        <mxCell id="1" parent="0" />
        <mxCell id="8AjibX_PYrr-mkABFfDi-1" value="" style="rounded=0;whiteSpace=wrap;html=1;" vertex="1" parent="1">
          <mxGeometry x="240" y="80" width="540" height="460" as="geometry" />
        </mxCell>
        <mxCell id="8AjibX_PYrr-mkABFfDi-2" value="" style="ellipse;whiteSpace=wrap;html=1;" vertex="1" parent="1">
          <mxGeometry x="305" y="120" width="120" height="80" as="geometry" />
        </mxCell>
        <mxCell id="8AjibX_PYrr-mkABFfDi-3" value="Cadastro de clientes" style="text;html=1;align=center;verticalAlign=middle;whiteSpace=wrap;rounded=0;" vertex="1" parent="1">
          <mxGeometry x="320" y="130" width="90" height="60" as="geometry" />
        </mxCell>
        <mxCell id="8AjibX_PYrr-mkABFfDi-4" value="Cliente" style="shape=umlActor;verticalLabelPosition=bottom;verticalAlign=top;html=1;outlineConnect=0;" vertex="1" parent="1">
          <mxGeometry x="90" y="190" width="30" height="60" as="geometry" />
        </mxCell>
        <mxCell id="8AjibX_PYrr-mkABFfDi-5" value="" style="endArrow=classic;html=1;rounded=0;exitX=0.72;exitY=0.383;exitDx=0;exitDy=0;exitPerimeter=0;entryX=0;entryY=0.5;entryDx=0;entryDy=0;" edge="1" parent="1" source="8AjibX_PYrr-mkABFfDi-4" target="8AjibX_PYrr-mkABFfDi-2">
          <mxGeometry width="50" height="50" relative="1" as="geometry">
            <mxPoint x="180" y="320" as="sourcePoint" />
            <mxPoint x="230" y="270" as="targetPoint" />
          </mxGeometry>
        </mxCell>
        <mxCell id="8AjibX_PYrr-mkABFfDi-6" value="" style="ellipse;whiteSpace=wrap;html=1;" vertex="1" parent="1">
          <mxGeometry x="305" y="210" width="95" height="50" as="geometry" />
        </mxCell>
        <mxCell id="8AjibX_PYrr-mkABFfDi-7" value="Compra" style="text;html=1;align=center;verticalAlign=middle;whiteSpace=wrap;rounded=0;" vertex="1" parent="1">
          <mxGeometry x="322.5" y="220" width="60" height="30" as="geometry" />
        </mxCell>
        <mxCell id="8AjibX_PYrr-mkABFfDi-8" value="" style="endArrow=classic;html=1;rounded=0;entryX=0;entryY=0.5;entryDx=0;entryDy=0;" edge="1" parent="1" source="8AjibX_PYrr-mkABFfDi-4" target="8AjibX_PYrr-mkABFfDi-6">
          <mxGeometry width="50" height="50" relative="1" as="geometry">
            <mxPoint x="180" y="320" as="sourcePoint" />
            <mxPoint x="230" y="270" as="targetPoint" />
          </mxGeometry>
        </mxCell>
        <mxCell id="8AjibX_PYrr-mkABFfDi-9" value="" style="ellipse;whiteSpace=wrap;html=1;" vertex="1" parent="1">
          <mxGeometry x="580" y="180" width="120" height="50" as="geometry" />
        </mxCell>
        <mxCell id="8AjibX_PYrr-mkABFfDi-10" value="PersistÃªncia no banco de dados" style="text;html=1;align=center;verticalAlign=middle;whiteSpace=wrap;rounded=0;" vertex="1" parent="1">
          <mxGeometry x="595" y="190" width="90" height="30" as="geometry" />
        </mxCell>
        <mxCell id="8AjibX_PYrr-mkABFfDi-13" value="" style="endArrow=none;dashed=1;html=1;dashPattern=1 3;strokeWidth=2;rounded=0;entryX=0;entryY=0.5;entryDx=0;entryDy=0;exitX=0.975;exitY=0.633;exitDx=0;exitDy=0;exitPerimeter=0;" edge="1" parent="1" source="8AjibX_PYrr-mkABFfDi-17" target="8AjibX_PYrr-mkABFfDi-9">
          <mxGeometry width="50" height="50" relative="1" as="geometry">
            <mxPoint x="90" y="380" as="sourcePoint" />
            <mxPoint x="140" y="330" as="targetPoint" />
          </mxGeometry>
        </mxCell>
        <mxCell id="8AjibX_PYrr-mkABFfDi-15" value="" style="endArrow=none;dashed=1;html=1;dashPattern=1 3;strokeWidth=2;rounded=0;entryX=0.05;entryY=0.772;entryDx=0;entryDy=0;entryPerimeter=0;exitX=1;exitY=0.5;exitDx=0;exitDy=0;" edge="1" parent="1" source="8AjibX_PYrr-mkABFfDi-21" target="8AjibX_PYrr-mkABFfDi-9">
          <mxGeometry width="50" height="50" relative="1" as="geometry">
            <mxPoint x="435" y="345" as="sourcePoint" />
            <mxPoint x="445" y="275" as="targetPoint" />
          </mxGeometry>
        </mxCell>
        <mxCell id="8AjibX_PYrr-mkABFfDi-18" value="" style="endArrow=none;dashed=1;html=1;dashPattern=1 3;strokeWidth=2;rounded=0;entryX=0;entryY=0.5;entryDx=0;entryDy=0;exitX=0.975;exitY=0.633;exitDx=0;exitDy=0;exitPerimeter=0;" edge="1" parent="1" source="8AjibX_PYrr-mkABFfDi-2" target="8AjibX_PYrr-mkABFfDi-17">
          <mxGeometry width="50" height="50" relative="1" as="geometry">
            <mxPoint x="422" y="171" as="sourcePoint" />
            <mxPoint x="500" y="205" as="targetPoint" />
          </mxGeometry>
        </mxCell>
        <mxCell id="8AjibX_PYrr-mkABFfDi-17" value="&amp;lt;&amp;lt;extends&amp;gt;&amp;gt;" style="text;html=1;align=center;verticalAlign=middle;whiteSpace=wrap;rounded=0;labelBackgroundColor=none;fillColor=none;" vertex="1" parent="1">
          <mxGeometry x="460" y="170" width="60" height="30" as="geometry" />
        </mxCell>
        <mxCell id="8AjibX_PYrr-mkABFfDi-22" value="" style="endArrow=none;dashed=1;html=1;dashPattern=1 3;strokeWidth=2;rounded=0;entryX=0.05;entryY=0.772;entryDx=0;entryDy=0;entryPerimeter=0;exitX=1;exitY=0.5;exitDx=0;exitDy=0;" edge="1" parent="1" source="8AjibX_PYrr-mkABFfDi-6" target="8AjibX_PYrr-mkABFfDi-21">
          <mxGeometry width="50" height="50" relative="1" as="geometry">
            <mxPoint x="400" y="235" as="sourcePoint" />
            <mxPoint x="616" y="229" as="targetPoint" />
          </mxGeometry>
        </mxCell>
        <mxCell id="8AjibX_PYrr-mkABFfDi-21" value="&amp;lt;&amp;lt;extends&amp;gt;&amp;gt;" style="text;html=1;align=center;verticalAlign=middle;whiteSpace=wrap;rounded=0;labelBackgroundColor=none;fillColor=none;" vertex="1" parent="1">
          <mxGeometry x="450" y="210" width="60" height="30" as="geometry" />
        </mxCell>
      </root>
    </mxGraphModel>
  </diagram>
</mxfile>
